<?xml version="1.0" encoding="UTF-8" standalone="no"?>
<!-- Created with Inkscape (http://www.inkscape.org/) -->

<svg
   width="201.44241mm"
   height="184.51109mm"
   viewBox="0 0 201.44241 184.51109"
   version="1.1"
   id="svg10680"
   xml:space="preserve"
   inkscape:version="1.2.1 (0f2f062aeb, 2022-09-21, custom)"
   sodipodi:docname="compatibility.svg"
   inkscape:export-filename="../bbecc3f8/compatibility.png"
   inkscape:export-xdpi="96"
   inkscape:export-ydpi="96"
   xmlns:inkscape="http://www.inkscape.org/namespaces/inkscape"
   xmlns:sodipodi="http://sodipodi.sourceforge.net/DTD/sodipodi-0.dtd"
   xmlns="http://www.w3.org/2000/svg"
   xmlns:svg="http://www.w3.org/2000/svg"><sodipodi:namedview
     id="namedview10682"
     pagecolor="#ffffff"
     bordercolor="#000000"
     borderopacity="0.25"
     inkscape:showpageshadow="2"
     inkscape:pageopacity="0.0"
     inkscape:pagecheckerboard="0"
     inkscape:deskcolor="#d1d1d1"
     inkscape:document-units="mm"
     showgrid="false"
     inkscape:zoom="0.44631734"
     inkscape:cx="180.36494"
     inkscape:cy="-172.52299"
     inkscape:window-width="1862"
     inkscape:window-height="1043"
     inkscape:window-x="58"
     inkscape:window-y="360"
     inkscape:window-maximized="1"
     inkscape:current-layer="layer1"
     inkscape:lockguides="false"
     showguides="true" /><defs
     id="defs10677"><marker
       style="overflow:visible"
       id="marker24542"
       refX="0"
       refY="0"
       orient="auto-start-reverse"
       inkscape:stockid="Arrow4"
       markerWidth="3"
       markerHeight="3.5999999"
       viewBox="0 0 5 6"
       inkscape:isstock="true"
       inkscape:collect="always"
       preserveAspectRatio="xMidYMid"><path
         style="fill:context-stroke;fill-rule:evenodd;stroke:none"
         d="m 1,0 -3,3 h -2 l 3,-3 -3,-3 h 2 z"
         id="path24540" /></marker><marker
       style="overflow:visible"
       id="Arrow4"
       refX="0"
       refY="0"
       orient="auto-start-reverse"
       inkscape:stockid="Arrow4"
       markerWidth="3"
       markerHeight="3.5999999"
       viewBox="0 0 5 6"
       inkscape:isstock="true"
       inkscape:collect="always"
       preserveAspectRatio="xMidYMid"><path
         style="fill:context-stroke;fill-rule:evenodd;stroke:none"
         d="m 1,0 -3,3 h -2 l 3,-3 -3,-3 h 2 z"
         id="path1741" /></marker><rect
       x="-1297.0612"
       y="-807.20563"
       width="602.61792"
       height="1311.7168"
       id="rect11670" /><marker
       style="overflow:visible"
       id="marker24542-7"
       refX="0"
       refY="0"
       orient="auto-start-reverse"
       inkscape:stockid="Arrow4"
       markerWidth="3"
       markerHeight="3.5999999"
       viewBox="0 0 5 6"
       inkscape:isstock="true"
       inkscape:collect="always"
       preserveAspectRatio="xMidYMid"><path
         style="fill:context-stroke;fill-rule:evenodd;stroke:none"
         d="m 1,0 -3,3 h -2 l 3,-3 -3,-3 h 2 z"
         id="path24540-8" /></marker><marker
       style="overflow:visible"
       id="Arrow4-6"
       refX="0"
       refY="0"
       orient="auto-start-reverse"
       inkscape:stockid="Arrow4"
       markerWidth="3"
       markerHeight="3.5999999"
       viewBox="0 0 5 6"
       inkscape:isstock="true"
       inkscape:collect="always"
       preserveAspectRatio="xMidYMid"><path
         style="fill:context-stroke;fill-rule:evenodd;stroke:none"
         d="m 1,0 -3,3 h -2 l 3,-3 -3,-3 h 2 z"
         id="path1741-8" /></marker><marker
       style="overflow:visible"
       id="marker24542-7-4"
       refX="0"
       refY="0"
       orient="auto-start-reverse"
       inkscape:stockid="Arrow4"
       markerWidth="3"
       markerHeight="3.5999999"
       viewBox="0 0 5 6"
       inkscape:isstock="true"
       inkscape:collect="always"
       preserveAspectRatio="xMidYMid"><path
         style="fill:context-stroke;fill-rule:evenodd;stroke:none"
         d="m 1,0 -3,3 h -2 l 3,-3 -3,-3 h 2 z"
         id="path24540-8-3" /></marker><marker
       style="overflow:visible"
       id="Arrow4-6-1"
       refX="0"
       refY="0"
       orient="auto-start-reverse"
       inkscape:stockid="Arrow4"
       markerWidth="3"
       markerHeight="3.5999999"
       viewBox="0 0 5 6"
       inkscape:isstock="true"
       inkscape:collect="always"
       preserveAspectRatio="xMidYMid"><path
         style="fill:context-stroke;fill-rule:evenodd;stroke:none"
         d="m 1,0 -3,3 h -2 l 3,-3 -3,-3 h 2 z"
         id="path1741-8-4" /></marker><marker
       style="overflow:visible"
       id="marker24542-7-4-2"
       refX="0"
       refY="0"
       orient="auto-start-reverse"
       inkscape:stockid="Arrow4"
       markerWidth="3"
       markerHeight="3.5999999"
       viewBox="0 0 5 6"
       inkscape:isstock="true"
       inkscape:collect="always"
       preserveAspectRatio="xMidYMid"><path
         style="fill:context-stroke;fill-rule:evenodd;stroke:none"
         d="m 1,0 -3,3 h -2 l 3,-3 -3,-3 h 2 z"
         id="path24540-8-3-0" /></marker><marker
       style="overflow:visible"
       id="Arrow4-6-1-6"
       refX="0"
       refY="0"
       orient="auto-start-reverse"
       inkscape:stockid="Arrow4"
       markerWidth="3"
       markerHeight="3.5999999"
       viewBox="0 0 5 6"
       inkscape:isstock="true"
       inkscape:collect="always"
       preserveAspectRatio="xMidYMid"><path
         style="fill:context-stroke;fill-rule:evenodd;stroke:none"
         d="m 1,0 -3,3 h -2 l 3,-3 -3,-3 h 2 z"
         id="path1741-8-4-8" /></marker><marker
       style="overflow:visible"
       id="marker24542-7-4-2-2"
       refX="0"
       refY="0"
       orient="auto-start-reverse"
       inkscape:stockid="Arrow4"
       markerWidth="3"
       markerHeight="3.5999999"
       viewBox="0 0 5 6"
       inkscape:isstock="true"
       inkscape:collect="always"
       preserveAspectRatio="xMidYMid"><path
         style="fill:context-stroke;fill-rule:evenodd;stroke:none"
         d="m 1,0 -3,3 h -2 l 3,-3 -3,-3 h 2 z"
         id="path24540-8-3-0-6" /></marker><marker
       style="overflow:visible"
       id="Arrow4-6-1-6-6"
       refX="0"
       refY="0"
       orient="auto-start-reverse"
       inkscape:stockid="Arrow4"
       markerWidth="3"
       markerHeight="3.5999999"
       viewBox="0 0 5 6"
       inkscape:isstock="true"
       inkscape:collect="always"
       preserveAspectRatio="xMidYMid"><path
         style="fill:context-stroke;fill-rule:evenodd;stroke:none"
         d="m 1,0 -3,3 h -2 l 3,-3 -3,-3 h 2 z"
         id="path1741-8-4-8-4" /></marker></defs><g
     inkscape:label="Layer 1"
     inkscape:groupmode="layer"
     id="layer1"
     transform="translate(-46.298184,-7.2230558)"><rect
       style="fill:#0b1562;fill-opacity:1;stroke:#000000;stroke-width:0;stroke-linejoin:bevel;stroke-miterlimit:2;stroke-dasharray:none;stroke-dashoffset:0;stroke-opacity:1"
       id="rect2503"
       width="99.834908"
       height="61.801964"
       x="99.160561"
       y="126.16122"
       ry="9.6552858" /><rect
       style="fill:#ffffff;fill-opacity:0.430982;stroke:#ffffff;stroke-width:2.01431;stroke-linejoin:bevel;stroke-miterlimit:2;stroke-dasharray:none;stroke-dashoffset:0;stroke-opacity:1"
       id="rect2503-0-3-6-0"
       width="90.134438"
       height="23.990835"
       x="104.1658"
       y="131.65695"
       ry="3.9569786" /><text
       xml:space="preserve"
       style="font-weight:bold;font-size:7.05556px;font-family:Ubuntu;-inkscape-font-specification:'Ubuntu, Bold';fill:#ffffff;fill-opacity:1;stroke:none;stroke-width:2;stroke-linejoin:bevel;stroke-miterlimit:2;stroke-dasharray:none;stroke-dashoffset:0;stroke-opacity:1"
       x="127.70647"
       y="178.18883"
       id="text5703"><tspan
         sodipodi:role="line"
         id="tspan5701"
         style="font-style:normal;font-variant:normal;font-weight:bold;font-stretch:normal;font-size:19.7556px;font-family:Ubuntu;-inkscape-font-specification:'Ubuntu, Bold';font-variant-ligatures:normal;font-variant-caps:normal;font-variant-numeric:normal;font-variant-east-asian:normal;fill:#ffffff;fill-opacity:1;stroke:none;stroke-width:2;stroke-opacity:1"
         x="127.70647"
         y="178.18883">tuna</tspan></text><text
       xml:space="preserve"
       style="font-style:normal;font-variant:normal;font-weight:bold;font-stretch:normal;font-size:19.7556px;font-family:Ubuntu;-inkscape-font-specification:'Ubuntu, Bold';font-variant-ligatures:normal;font-variant-caps:normal;font-variant-numeric:normal;font-variant-east-asian:normal;fill:#ffffff;fill-opacity:1;stroke:none;stroke-width:2;stroke-linejoin:bevel;stroke-miterlimit:2;stroke-dasharray:none;stroke-dashoffset:0;stroke-opacity:1"
       x="129.65398"
       y="143.00751"
       id="text5913-6-0-3"><tspan
         sodipodi:role="line"
         style="font-style:normal;font-variant:normal;font-weight:bold;font-stretch:normal;font-size:10.5833px;font-family:Ubuntu;-inkscape-font-specification:'Ubuntu, Bold';font-variant-ligatures:normal;font-variant-caps:normal;font-variant-numeric:normal;font-variant-east-asian:normal;stroke-width:2"
         x="129.65398"
         y="143.00751"
         id="tspan11014">MySQL</tspan></text><text
       xml:space="preserve"
       style="font-style:normal;font-variant:normal;font-weight:bold;font-stretch:normal;font-size:19.7556px;font-family:Ubuntu;-inkscape-font-specification:'Ubuntu, Bold';font-variant-ligatures:normal;font-variant-caps:normal;font-variant-numeric:normal;font-variant-east-asian:normal;fill:#ffffff;fill-opacity:1;stroke:none;stroke-width:2;stroke-linejoin:bevel;stroke-miterlimit:2;stroke-dasharray:none;stroke-dashoffset:0;stroke-opacity:1"
       x="126.24848"
       y="151.53052"
       id="text5913-6-0-3-4"><tspan
         sodipodi:role="line"
         style="font-style:normal;font-variant:normal;font-weight:bold;font-stretch:normal;font-size:10.5833px;font-family:Ubuntu;-inkscape-font-specification:'Ubuntu, Bold';font-variant-ligatures:normal;font-variant-caps:normal;font-variant-numeric:normal;font-variant-east-asian:normal;stroke-width:2"
         x="126.24848"
         y="151.53052"
         id="tspan11014-7">protocol</tspan></text><rect
       style="fill:#747aa6;fill-opacity:1;stroke:#0b1562;stroke-width:2;stroke-linejoin:bevel;stroke-miterlimit:2;stroke-dasharray:none;stroke-dashoffset:0;stroke-opacity:1"
       id="rect2503-06-5"
       width="32.382126"
       height="30.841379"
       x="54.808151"
       y="11.702674"
       ry="7.6496782" /><rect
       style="fill:#747aa6;fill-opacity:1;stroke:#0b1562;stroke-width:2;stroke-linejoin:bevel;stroke-miterlimit:2;stroke-dasharray:none;stroke-dashoffset:0;stroke-opacity:1"
       id="rect2503-06-5-3"
       width="32.382126"
       height="30.841379"
       x="210.04575"
       y="33.049774"
       ry="7.6496782" /><rect
       style="fill:#747aa6;fill-opacity:1;stroke:#0b1562;stroke-width:2;stroke-linejoin:bevel;stroke-miterlimit:2;stroke-dasharray:none;stroke-dashoffset:0;stroke-opacity:1"
       id="rect2503-06-5-4"
       width="32.382126"
       height="30.841379"
       x="54.99472"
       y="53.214203"
       ry="7.6496782" /><rect
       style="fill:#747aa6;fill-opacity:1;stroke:#0b1562;stroke-width:2;stroke-linejoin:bevel;stroke-miterlimit:2;stroke-dasharray:none;stroke-dashoffset:0;stroke-opacity:1"
       id="rect2503-06-5-4-7"
       width="32.382126"
       height="30.841379"
       x="55.185806"
       y="94.434486"
       ry="7.6496782" /><rect
       style="fill:#747aa6;fill-opacity:1;stroke:#0b1562;stroke-width:2;stroke-linejoin:bevel;stroke-miterlimit:2;stroke-dasharray:none;stroke-dashoffset:0;stroke-opacity:1"
       id="rect2503-06-5-4-7-0"
       width="32.382126"
       height="30.841379"
       x="210.12523"
       y="74.883186"
       ry="7.6496782" /><path
       d="m 62.276212,75.670903 h 2.349144 v 2.349144 h -2.349144 z"
       fill="#ff0000"
       id="path11654"
       style="fill:#0b1562;fill-opacity:1;stroke:none;stroke-width:2.34914;stroke-opacity:1" /><path
       d="m 62.276212,59.226894 h 2.349144 v 16.444009 h -2.349144 z m 4.698288,0 h 2.349144 V 78.020047 H 66.9745 Z m 4.698288,0 h 2.349145 v 18.793153 h -2.349145 z m 4.698289,0 h 2.349144 v 18.793153 h -2.349144 z m 4.698288,7.634718 h 2.349144 v 3.523716 h -2.349144 z"
       fill="#ffcc00"
       id="path11656"
       style="fill:#ffffff;fill-opacity:1;stroke:none;stroke-width:2.34914;stroke-opacity:1" /><text
       xml:space="preserve"
       transform="scale(0.26458333)"
       id="text11668"
       style="font-style:normal;font-variant:normal;font-weight:bold;font-stretch:normal;font-size:26.6667px;font-family:Ubuntu;-inkscape-font-specification:'Ubuntu, Bold';font-variant-ligatures:normal;font-variant-caps:normal;font-variant-numeric:normal;font-variant-east-asian:normal;white-space:pre;shape-inside:url(#rect11670);display:inline;fill:#ffffff;stroke:none;stroke-width:7.55906;stroke-linejoin:bevel;stroke-miterlimit:2;stroke-dasharray:3.46348, 3.46348" /><g
       id="g16423"
       transform="matrix(0.07637557,0,0,0.07637557,62.203042,17.305171)"
       style="fill:#ffffff;fill-opacity:1"><path
         d="m 235.648,194.212 c -13.918,-0.347 -24.705,1.045 -33.752,4.872 -2.61,1.043 -6.786,1.044 -7.134,4.35 1.392,1.392 1.566,3.654 2.784,5.567 2.09,3.479 5.741,8.177 9.047,10.614 3.653,2.783 7.308,5.566 11.134,8.002 6.786,4.176 14.442,6.611 21.053,10.787 3.829,2.434 7.654,5.568 11.482,8.177 1.914,1.39 3.131,3.654 5.568,4.523 v -0.521 c -1.219,-1.567 -1.567,-3.828 -2.784,-5.568 -1.738,-1.74 -3.48,-3.306 -5.22,-5.046 -5.045,-6.784 -11.308,-12.7 -18.093,-17.571 -5.567,-3.828 -17.747,-9.047 -20.008,-15.485 0,0 -0.175,-0.173 -0.348,-0.347 3.827,-0.348 8.35,-1.74 12.005,-2.784 5.915,-1.567 11.308,-1.218 17.398,-2.784 2.783,-0.696 5.567,-1.566 8.35,-2.436 v -1.565 c -3.13,-3.132 -5.392,-7.307 -8.698,-10.265 -8.873,-7.657 -18.617,-15.137 -28.707,-21.4 -5.394,-3.48 -12.354,-5.742 -18.095,-8.699 -2.086,-1.045 -5.567,-1.566 -6.784,-3.306 -3.133,-3.827 -4.873,-8.872 -7.134,-13.396 -5.044,-9.57 -9.917,-20.182 -14.267,-30.272 -3.13,-6.786 -5.044,-13.572 -8.872,-19.834 C 136.653,60.248 117.167,42.328 87.243,24.755 80.805,21.102 73.15,19.536 64.973,17.623 60.625,17.448 56.274,17.101 51.925,16.926 49.141,15.708 46.357,12.403 43.921,10.837 34.006,4.573 8.429,-8.996 1.122,8.924 c -4.698,11.308 6.96,22.442 10.96,28.185 2.96,4.001 6.786,8.524 8.874,13.048 1.218,2.956 1.565,6.09 2.783,9.221 2.785,7.653 5.393,16.18 9.048,23.314 1.914,3.653 4.001,7.48 6.437,10.786 1.392,1.913 3.827,2.784 4.35,5.915 -2.435,3.48 -2.61,8.7 -4.003,13.049 -6.263,19.66 -3.826,44.017 5.046,58.457 2.783,4.348 9.395,13.92 18.268,10.265 7.83,-3.131 6.09,-13.048 8.35,-21.747 0.524,-2.09 0.176,-3.48 1.219,-4.872 v 0.349 c 2.436,4.87 4.871,9.569 7.133,14.44 5.394,8.524 14.788,17.398 22.617,23.314 4.177,3.13 7.482,8.524 12.702,10.438 v -0.523 h -0.349 c -1.044,-1.566 -2.61,-2.261 -4.001,-3.48 -3.131,-3.13 -6.612,-6.958 -9.047,-10.438 -7.306,-9.744 -13.745,-20.53 -19.486,-31.665 -2.783,-5.392 -5.22,-11.308 -7.481,-16.701 -1.045,-2.09 -1.045,-5.22 -2.784,-6.263 -2.61,3.827 -6.437,7.133 -8.351,11.83 -3.304,7.481 -3.653,16.702 -4.871,26.27 -0.696,0.176 -0.349,0 -0.697,0.35 -5.566,-1.394 -7.48,-7.134 -9.569,-12.006 -5.22,-12.352 -6.09,-32.186 -1.565,-46.452 1.218,-3.654 6.438,-15.136 4.35,-18.616 C 50.011,92.086 46.53,90.172 44.617,87.563 42.356,84.257 39.919,80.083 38.354,76.428 34.178,66.685 32.09,55.898 27.567,46.155 25.479,41.631 21.827,36.935 18.868,32.759 15.563,28.062 11.909,24.755 9.299,19.188 8.43,17.275 7.211,14.143 8.603,12.055 c 0.348,-1.392 1.043,-1.913 2.436,-2.261 2.262,-1.915 8.7,0.521 10.96,1.565 6.438,2.608 11.831,5.046 17.225,8.699 2.435,1.74 5.045,5.046 8.176,5.916 h 3.654 c 5.568,1.217 11.83,0.348 17.05,1.913 9.222,2.957 17.572,7.307 25.054,12.005 22.792,14.44 41.58,34.97 54.282,59.501 2.088,4 2.957,7.656 4.871,11.83 3.655,8.526 8.178,17.225 11.83,25.576 3.654,8.176 7.133,16.528 12.353,23.314 2.61,3.652 13.048,5.567 17.746,7.481 3.48,1.565 8.874,2.958 12.005,4.871 5.915,3.652 11.83,7.83 17.398,11.83 2.784,2.088 11.482,6.438 12.005,9.917 z"
         fill="#00546b"
         id="path16411"
         style="fill:#ffffff;fill-opacity:1" /><path
         d="m 58.186,43.022 c -2.957,0 -5.044,0.35 -7.132,0.871 v 0.348 h 0.348 c 1.393,2.784 3.827,4.698 5.566,7.133 1.393,2.783 2.61,5.568 4.003,8.352 0.173,-0.175 0.347,-0.348 0.347,-0.348 2.437,-1.741 3.654,-4.524 3.654,-8.7 -1.044,-1.217 -1.218,-2.435 -2.088,-3.653 -1.043,-1.741 -3.306,-2.61 -4.698,-4.003 z"
         fill="#00546b"
         id="path16413"
         style="fill:#ffffff;fill-opacity:1" /></g><g
       id="g24335"
       transform="translate(0,-5.2916669)"><path
         d="m 81.296538,106.55326 c -0.359847,0.0116 -0.246062,0.11525 -1.023606,0.30656 -0.785197,0.19322 -1.744304,0.13392 -2.589809,0.48857 -2.524035,1.05859 -3.030463,4.67647 -5.325015,5.97247 -1.715152,0.96876 -3.445608,1.04602 -5.001334,1.53359 -1.022422,0.32058 -2.140865,0.97805 -3.067176,1.77637 -0.718967,0.61975 -0.737733,1.16481 -1.48904,1.94226 -0.803508,0.83148 -3.193715,0.014 -4.276993,1.28671 0.348915,0.35283 0.501964,0.45168 1.189592,0.36012 -0.142299,0.26984 -0.981609,0.49723 -0.817355,0.89424 0.172909,0.4177 2.201903,0.70084 4.046417,-0.41268 0.858988,-0.51864 1.543245,-1.26621 2.880967,-1.44459 1.731185,-0.23075 3.725561,0.14795 5.729683,0.43701 -0.29717,0.88605 -0.893788,1.47529 -1.371702,2.18095 -0.148038,0.15943 0.297262,0.17729 0.805239,0.081 0.913739,-0.22593 1.572215,-0.40795 2.261846,-0.80934 0.847236,-0.49322 0.975688,-1.7576 2.015147,-2.03127 0.579126,0.89024 2.154439,1.1005 3.131857,0.38846 -0.857712,-0.24279 -1.094756,-2.06844 -0.805238,-2.87286 0.274213,-0.7616 0.545237,-1.97962 0.821454,-2.98628 0.296533,-1.081 0.405854,-2.44359 0.764699,-2.9943 0.539954,-0.82847 1.136481,-1.11297 1.654388,-1.58014 0.517998,-0.46725 0.992086,-0.92194 0.976507,-1.991 -0.005,-0.34436 -0.183112,-0.53622 -0.510528,-0.52584 z"
         fill="#002b64"
         id="path17909"
         style="fill:#ffffff;fill-opacity:1;stroke-width:0.0911006" /><path
         d="m 59.268586,121.0379 c 1.313489,0.18822 2.112259,0 3.167023,-0.45732 0.897523,-0.38928 1.764255,-1.19169 2.824119,-1.53186 1.556455,-0.49941 3.263316,6.4e-4 4.927179,0.10039 0.405215,0.0243 0.807789,0.0246 1.20517,-0.0187 0.619758,-0.38099 0.607003,-1.80589 1.210272,-1.93644 -0.01776,1.9992 -0.837397,3.19709 -1.694563,4.35698 1.806526,-0.31903 2.887617,-1.36396 3.617788,-2.75953 0.221557,-0.42316 0.410682,-0.87839 0.577943,-1.35558 0.258635,0.19851 0.112054,0.80242 0.242054,1.12965 1.244344,-0.69318 1.956842,-2.27505 2.428743,-3.87496 0.545875,-1.85162 0.769345,-3.72657 1.121449,-4.27445 0.343632,-0.53476 0.878393,-0.86436 1.36651,-1.20672 0.554803,-0.38927 1.049479,-0.79494 1.134932,-1.53659 -0.584958,-0.0541 -0.720242,-0.18949 -0.806788,-0.48429 -0.292888,0.16507 -0.562182,0.20042 -0.866458,0.20953 -0.264009,0.008 -0.554074,-0.004 -0.908364,0.0326 -2.929797,0.30091 -3.302125,3.53015 -5.179983,5.36073 a 4.4044426,4.4044426 0 0 1 -0.440471,0.37388 c -0.657747,0.49012 -1.464534,0.84031 -2.206458,1.12391 -1.20098,0.45887 -2.342744,0.49148 -3.469477,0.88759 -0.827193,0.2907 -1.667688,0.71241 -2.347025,1.17738 a 6.9573559,6.9573559 0 0 0 -0.477185,0.35557 c -0.398657,0.32614 -0.660389,0.68808 -0.913467,1.06041 -0.261094,0.38354 -0.51317,0.77827 -0.897432,1.15534 -0.622582,0.61129 -2.948928,0.17828 -3.767922,0.7452 -0.09128,0.063 -0.163799,0.13875 -0.213176,0.22967 0.44694,0.20306 0.745385,0.0784 1.259466,0.13528 0.06742,0.48785 -1.060593,0.77773 -0.893879,1.00238 z m 17.75014,-3.51411 c 0.03498,0.55963 0.359847,1.66987 0.646632,1.9398 -0.561727,0.13665 -1.529306,-0.0891 -1.777556,-0.48529 0.127541,-0.57211 0.791301,-1.09503 1.130924,-1.45451 z"
         fill="#ffffff"
         id="path17911"
         style="fill:#747aa6;fill-opacity:1;stroke-width:0.0911006" /><path
         d="m 77.841638,108.64229 c 0.41469,0.36003 1.284974,0.0711 1.129466,-0.64535 -0.644446,-0.0534 -1.017777,0.16534 -1.129466,0.64535 z m 2.891443,-0.8373 c -0.110232,0.23139 -0.321494,0.52975 -0.321494,1.11871 -9.11e-4,0.10112 -0.0768,0.17045 -0.07807,0.0146 0.0057,-0.57576 0.158059,-0.82455 0.319945,-1.1516 0.07525,-0.13401 0.120526,-0.0787 0.07962,0.0183 z"
         fill="#002b64"
         id="path17913"
         style="fill:#ffffff;fill-opacity:1;stroke-width:0.0911006" /><path
         d="m 80.622029,107.71789 c -0.130183,0.22074 -0.443478,0.6235 -0.495314,1.21028 -0.0096,0.10057 -0.09137,0.16288 -0.07898,0.007 0.05648,-0.57284 0.306918,-0.93142 0.496954,-1.24307 0.08627,-0.12672 0.126812,-0.0677 0.07734,0.0254 z m -0.101304,-0.11551 c -0.14822,0.20898 -0.630598,0.69264 -0.731447,1.27313 -0.01813,0.0993 -0.104856,0.15469 -0.07935,7.3e-4 0.104401,-0.56619 0.520184,-1.01122 0.735728,-1.30556 0.09657,-0.11935 0.131914,-0.0569 0.07507,0.0317 z m -0.09037,-0.12882 c -0.176098,0.18603 -0.751125,0.80278 -0.932415,1.36323 -0.03207,0.0958 -0.125719,0.13848 -0.07871,-0.0104 0.182839,-0.54588 0.686443,-1.13393 0.941251,-1.39494 0.11251,-0.10449 0.138656,-0.0378 0.06987,0.0421 z"
         fill="#002b64"
         id="path17915"
         style="fill:#fffffe;fill-opacity:1;stroke-width:0.0911006" /></g><symbol
       id="A"
       overflow="visible"
       transform="matrix(0.26458333,0,0,0.26458333,212.07465,44.340649)"
       style="fill:#ffffff;fill-rule:evenodd;stroke:#000000;stroke-linecap:round;stroke-linejoin:round"><g
         stroke="none"
         id="g18710"><path
           d="M 45.36,39.96 V 22.52 H 34.64 v 17.44 l -15.08,8.72 5.36,9.28 15.08,-8.72 15.08,8.72 5.36,-9.28 z"
           fill="#669df6"
           id="path18700" /><path
           d="M 45.36,39.96 V 22.52 H 40 V 43 l -17.76,10.32 2.68,4.64 15.08,-8.72 15.08,8.72 5.36,-9.28 z"
           fill="#4285f4"
           id="path18702" /><path
           d="M 34.6,0 26.48,4.88 V 19.8 L 40,27.12 V 14.68 L 34.6,12.2 Z"
           fill="#aecbfa"
           id="path18704" /><path
           d="M 45.4,12.2 40,14.68 V 27.12 L 53.52,19.8 V 4.88 L 45.4,0 Z m 19.16,45.04 -0.32,5.56 10.8,6.12 -8.72,4.8 -12.96,-7.48 0.44,-15.32 13.08,-8 L 80,50.44 V 60.4 L 69.24,54.2 Z m -49.12,0 L 10.76,54.2 0,60.4 v -9.96 l 12.92,-7.48 13.08,8 0.44,15.32 -12.76,7.56 -8.72,-4.92 10.8,-6.24 z"
           fill="#669df6"
           id="path18706" /><path
           d="M 80,60.4 79.8,50.44 66.88,43 53.8,51.04 64.56,57.24 69.2,54.2 Z m -80,0 10.8,-6.2 4.64,3.04 L 26.2,51.04 13.12,43 0.2,50.44 Z"
           fill="#aecbfa"
           id="path18708" /></g></symbol><g
       data-name="Product Icons"
       id="g19676"
       transform="matrix(1.2919149,0,0,1.2919149,156.18998,39.153704)"><g
         id="g19902"
         transform="matrix(0.80908194,0,0,0.80908194,44.531372,-2.565861)"><polygon
           id="Shape-2"
           data-name="Shape"
           class="cls-1"
           points="10.66,12.76 6.89,14.94 8.23,17.26 12,15.08 15.77,17.26 17.11,14.94 13.34,12.76 13.34,8.4 10.66,8.4 "
           style="fill:#fffffe;fill-opacity:1;fill-rule:evenodd" /><polygon
           class="cls-2"
           points="12,13.52 7.56,16.1 8.23,17.26 12,15.08 15.77,17.26 17.11,14.94 13.34,12.76 13.34,8.4 12,8.4 "
           id="polygon19660"
           style="fill:#fffffe;fill-opacity:1;fill-rule:evenodd" /><polygon
           class="cls-3"
           points="10.65,2.77 8.62,3.99 8.62,7.72 12,9.55 12,6.44 10.65,5.82 "
           id="polygon19662"
           style="fill:#ffffff;fill-opacity:1;fill-rule:evenodd" /><polygon
           class="cls-1"
           points="13.35,5.82 12,6.44 12,9.55 15.38,7.72 15.38,3.99 13.35,2.77 "
           id="polygon19664"
           style="fill:#ffffff;fill-opacity:1;fill-rule:evenodd" /><path
           class="cls-1"
           d="m 18.14,17.08 -0.08,1.39 2.7,1.53 -2.18,1.2 -3.24,-1.87 0.11,-3.83 3.27,-2 3.28,1.88 v 2.49 l -2.69,-1.55 z"
           id="path19666"
           style="fill:#ffffff;fill-opacity:1;fill-rule:evenodd" /><path
           class="cls-1"
           d="M 5.86,17.08 4.69,16.32 2,17.87 v -2.49 l 3.23,-1.87 3.27,2 0.11,3.83 L 5.42,21.23 3.24,20 5.94,18.44 Z"
           id="path19668"
           style="fill:#ffffff;fill-opacity:1;fill-rule:evenodd" /><polygon
           class="cls-3"
           points="22,17.87 21.95,15.38 18.72,13.52 15.45,15.53 18.14,17.08 19.3,16.32 "
           id="polygon19670"
           style="fill:#ffffff;fill-opacity:1;fill-rule:evenodd" /><polygon
           class="cls-3"
           points="2,17.87 4.7,16.32 5.86,17.08 8.55,15.53 5.28,13.52 2.05,15.38 "
           id="polygon19672"
           style="fill:#ffffff;fill-opacity:1;fill-rule:evenodd" /></g></g><path
       style="fill:#ffffff;fill-opacity:1;stroke-width:0.0689903"
       d="m 225.64689,99.635373 c -0.51225,-0.298957 -1.07107,-0.620617 -1.24182,-0.714804 -0.17075,-0.0941 -0.49673,-0.28065 -0.7244,-0.41437 -0.22767,-0.133707 -0.75545,-0.439047 -1.17285,-0.678494 -0.41738,-0.23947 -0.81099,-0.46695 -0.87467,-0.505517 -0.0637,-0.0386 -0.40519,-0.23497 -0.7589,-0.43644 -0.35371,-0.201467 -0.95356,-0.549587 -1.33301,-0.773574 -0.37945,-0.22401 -0.7908,-0.460747 -0.91413,-0.526097 l -0.22421,-0.11883 v -4.734775 -4.734785 l 0.22421,-0.119094 c 0.12333,-0.06551 0.28631,-0.157434 0.3622,-0.204297 0.0759,-0.04686 0.37083,-0.21716 0.65542,-0.37844 0.28457,-0.161279 0.6416,-0.369374 0.79339,-0.46243 0.15177,-0.09306 0.44671,-0.262375 0.6554,-0.376263 0.2087,-0.113887 0.52513,-0.293057 0.7032,-0.398155 0.6049,-0.357026 2.08924,-1.215513 2.50486,-1.448711 0.22767,-0.127742 0.50708,-0.288583 0.62091,-0.357425 0.11384,-0.06884 0.54071,-0.31773 0.94862,-0.553084 l 0.74165,-0.427918 0.74165,0.427918 c 0.4079,0.235354 0.83478,0.484975 0.94861,0.554713 0.11384,0.06974 0.3622,0.209405 0.55193,0.310373 0.18972,0.100968 0.50018,0.281915 0.6899,0.402106 0.18973,0.120189 0.60885,0.365678 0.93138,0.545532 0.32252,0.179852 0.74164,0.419385 0.93137,0.532293 0.18972,0.11291 0.5157,0.298471 0.7244,0.412358 0.20869,0.113888 0.50363,0.284246 0.6554,0.378573 0.15178,0.09432 0.41567,0.249796 0.58642,0.345486 0.17075,0.09569 0.46569,0.267245 0.65541,0.381232 0.18972,0.113987 0.44585,0.258546 0.56918,0.321241 l 0.22421,0.113992 -2e-4,4.730311 -2.2e-4,4.730309 -0.23882,0.13798 c -0.13136,0.0759 -0.51159,0.290167 -0.84495,0.476187 -0.33336,0.18602 -0.68373,0.391697 -0.77859,0.457077 -0.0948,0.0654 -0.45189,0.27395 -0.79339,0.463487 -0.3415,0.18953 -0.72958,0.409047 -0.86239,0.487827 -0.1328,0.0788 -0.48982,0.28648 -0.79338,0.461567 -0.30356,0.17509 -0.7382,0.42827 -0.96587,0.562617 -0.22766,0.13435 -0.55365,0.32084 -0.7244,0.41443 -0.17075,0.0936 -0.40359,0.225867 -0.51743,0.293957 -0.52803,0.315827 -1.67737,0.970454 -1.69976,0.968114 -0.0137,-9.7e-4 -0.44408,-0.247217 -0.95633,-0.546177 z m 1.07862,-12.124058 c 0.0615,-0.0236 0.37949,-0.198695 0.70668,-0.389108 0.32718,-0.190414 0.85485,-0.493678 1.17261,-0.673921 0.31776,-0.180243 0.61269,-0.363046 0.65541,-0.406231 0.0821,-0.083 0.0671,-0.09615 -0.43622,-0.381139 -0.38402,-0.217461 -1.5437,-0.888633 -1.66755,-0.965109 -0.0615,-0.03794 -0.20892,-0.12412 -0.32771,-0.1915 l -0.21599,-0.122511 -0.50017,0.284538 c -0.2751,0.156497 -0.84167,0.482163 -1.25907,0.723703 -0.41739,0.241539 -1.11592,0.644037 -1.55229,0.894439 -0.43636,0.2504 -1.10384,0.635199 -1.48329,0.855106 l -0.6899,0.399832 -0.0185,1.596526 c -0.0159,1.36187 -0.004,1.596532 0.0822,1.596532 0.0553,0 0.12031,-0.03171 0.14428,-0.07051 0.0239,-0.03881 0.21984,-0.163224 0.43526,-0.276504 0.21542,-0.11328 0.43823,-0.23652 0.49515,-0.273878 0.20268,-0.133004 1.52955,-0.896874 1.55791,-0.896874 0.0159,0 0.0289,1.412183 0.0289,3.138199 v 3.138192 l 0.25968,0.16392 c 0.14281,0.0902 0.41446,0.247457 0.60367,0.349557 0.18919,0.10208 0.68548,0.383567 1.10287,0.625517 l 0.7589,0.439927 0.0177,-4.757885 c 0.016,-4.312673 0.0282,-4.761907 0.12951,-4.800794 z m 2.93529,7.835992 c 0.43056,-0.273547 2.09142,-1.234825 2.28147,-1.320465 l 0.18973,-0.0855 v -3.191217 c 0,-1.755168 -0.0162,-3.191214 -0.0361,-3.191214 -0.0401,0 -0.75204,0.403266 -1.98189,1.122496 l -0.81065,0.474072 v 3.168662 c 0,1.909061 0.0256,3.168666 0.0642,3.168666 0.0353,0 0.16726,-0.0655 0.29321,-0.1455 z"
       id="path22836" /><path
       style="fill:none;fill-opacity:1;stroke:#0b1562;stroke-width:2;stroke-linejoin:bevel;stroke-miterlimit:2;stroke-dasharray:0.916379, 0.916379;stroke-opacity:1;marker-start:url(#marker24542);marker-end:url(#Arrow4)"
       d="m 89.650513,109.9578 h 28.011797 c 0,0 3.71006,-0.44213 5.97718,1.46465 2.89613,2.4358 3.23608,5.37859 3.23608,5.37859 v 8.53497"
       id="path24500"
       sodipodi:nodetypes="ccscc" /><path
       style="fill:none;fill-opacity:1;stroke:#0b1562;stroke-width:2;stroke-linejoin:bevel;stroke-miterlimit:2;stroke-dasharray:0.916379, 0.916379;stroke-opacity:1;marker-start:url(#marker24542-7);marker-end:url(#Arrow4-6)"
       d="m 89.513634,68.315502 h 37.595216 c 0,0 3.71006,-0.44213 5.97718,1.46465 2.89613,2.4358 3.23608,5.37859 3.23608,5.37859 v 50.261998"
       id="path24500-8"
       sodipodi:nodetypes="ccscc" /><path
       style="fill:none;fill-opacity:1;stroke:#0b1562;stroke-width:2;stroke-linejoin:bevel;stroke-miterlimit:2;stroke-dasharray:0.916379, 0.916379;stroke-opacity:1;marker-start:url(#marker24542-7-4);marker-end:url(#Arrow4-6-1)"
       d="m 89.240292,26.893338 h 47.740078 c 0,0 3.71006,-0.44213 5.97718,1.46465 2.89613,2.4358 3.23608,5.37859 3.23608,5.37859 v 91.763602"
       id="path24500-8-9"
       sodipodi:nodetypes="ccscc" /><path
       style="fill:none;fill-opacity:1;stroke:#0b1562;stroke-width:1.98403;stroke-linejoin:bevel;stroke-miterlimit:2;stroke-dasharray:0.909063, 0.909063;stroke-opacity:1;marker-start:url(#marker24542-7-4-2);marker-end:url(#Arrow4-6-1-6)"
       d="m 207.80019,47.15071 h -43.25817 c 0,0 -3.64964,-0.442301 -5.87984,1.465217 -2.84897,2.436742 -3.18339,5.38067 -3.18339,5.38067 v 71.354023"
       id="path24500-8-9-9"
       sodipodi:nodetypes="ccscc" /><path
       style="fill:none;fill-opacity:1;stroke:#0b1562;stroke-width:1.98403;stroke-linejoin:bevel;stroke-miterlimit:2;stroke-dasharray:0.909063, 0.909063;stroke-opacity:1;marker-start:url(#marker24542-7-4-2-2);marker-end:url(#Arrow4-6-1-6-6)"
       d="m 207.87373,90.216795 h -34.36521 c 0,0 -3.64964,-0.442301 -5.87984,1.465217 -2.84897,2.436742 -3.18339,5.38067 -3.18339,5.38067 v 28.211028"
       id="path24500-8-9-9-9"
       sodipodi:nodetypes="ccscc" /></g></svg>
