<?xml version="1.0" encoding="UTF-8" standalone="no"?>
<!-- Generator: Adobe Illustrator 19.1.0, SVG Export Plug-In . SVG Version: 6.00 Build 0)  -->

<svg
   version="1.1"
   x="0px"
   y="0px"
   viewBox="0 0 590.4668 590.4668"
   xml:space="preserve"
   id="svg22498"
   sodipodi:docname="rocket.svg"
   inkscape:version="1.2.1 (ef4d3fba62, 2022-07-19, custom)"
   inkscape:export-filename="../7bdf943a/rocket.png"
   inkscape:export-xdpi="162.58324"
   inkscape:export-ydpi="162.58324"
   width="590.4668"
   height="590.4668"
   xmlns:inkscape="http://www.inkscape.org/namespaces/inkscape"
   xmlns:sodipodi="http://sodipodi.sourceforge.net/DTD/sodipodi-0.dtd"
   xmlns:xlink="http://www.w3.org/1999/xlink"
   xmlns="http://www.w3.org/2000/svg"
   xmlns:svg="http://www.w3.org/2000/svg"><defs
   id="defs22502"><linearGradient
   inkscape:collect="always"
   id="linearGradient31864"><stop
     style="stop-color:#004096;stop-opacity:1;"
     offset="0"
     id="stop31860" /><stop
     style="stop-color:#ff4096;stop-opacity:1;"
     offset="1"
     id="stop31862" /></linearGradient>
	
	
	
	
	
	
	
	
	
	
	
	
	
	
	
	

		
	<linearGradient
   inkscape:collect="always"
   xlink:href="#linearGradient31864"
   id="linearGradient31866"
   x1="12.727474"
   y1="32"
   x2="51.272526"
   y2="32"
   gradientUnits="userSpaceOnUse"
   gradientTransform="matrix(11.624981,0,0,11.624981,-74.617089,-77.790136)" /></defs><sodipodi:namedview
   id="namedview22500"
   pagecolor="#ffffff"
   bordercolor="#000000"
   borderopacity="0.25"
   inkscape:showpageshadow="2"
   inkscape:pageopacity="0.0"
   inkscape:pagecheckerboard="0"
   inkscape:deskcolor="#d1d1d1"
   showgrid="false"
   inkscape:zoom="1.0882815"
   inkscape:cx="291.28492"
   inkscape:cy="320.22964"
   inkscape:window-width="1846"
   inkscape:window-height="1016"
   inkscape:window-x="0"
   inkscape:window-y="0"
   inkscape:window-maximized="1"
   inkscape:current-layer="svg22498" />
<style
   type="text/css"
   id="style22430">
	.st0{fill:#4F5D73;}
	.st1{opacity:0.2;}
	.st2{fill:#231F20;}
	.st3{fill:#C75C5C;}
	.st4{fill:#E0995E;}
	.st5{fill:#F5CF87;}
	.st6{fill:#E0E0D1;}
</style>
<circle
   class="st0"
   cx="297.38239"
   cy="294.20938"
   r="224.04276"
   id="circle22432"
   style="opacity:1;fill:url(#linearGradient31866);fill-opacity:1;stroke-width:7.00133" /><g
   class="st1"
   id="g22438"
   transform="matrix(7.0013364,0,0,7.0013364,73.339642,70.166708)">
		<path
   class="st2"
   d="M 32.1,39.7 C 30.5,41.2 26,52.2 26,52.2 c -0.7,1.2 0.3,2.1 2.6,0.9 l 8.1,-4.4 c 4.4,-2.4 5.2,-3.1 5.2,-8 l -0.8,-5.9 c -0.3,-2 -1.8,-2.4 -3.3,-0.8 z"
   id="path22436" />
	</g><g
   class="st1"
   id="g22442"
   transform="matrix(7.0013364,0,0,7.0013364,73.339642,70.166708)">
		<path
   class="st2"
   d="m 27.1,34.7 c -1.6,1.6 -12.5,6.1 -12.5,6.1 -1.2,0.7 -2.1,-0.3 -0.9,-2.6 L 18,30 c 2.4,-4.4 3.1,-5.2 8,-5.2 l 5.9,0.8 c 2,0.3 2.4,1.8 0.8,3.3 z"
   id="path22440" />
	</g><g
   id="g22446"
   transform="matrix(7.0013364,0,0,7.0013364,73.339642,70.166708)">
		<path
   class="st3"
   d="M 32.1,37.7 C 30.5,39.2 26,50.2 26,50.2 c -0.7,1.2 0.3,2.1 2.6,0.9 l 8.1,-4.4 c 4.4,-2.4 5.2,-3.1 5.2,-8 l -0.8,-5.9 c -0.3,-2 -1.8,-2.4 -3.3,-0.8 z"
   id="path22444" />
	</g><g
   id="g22450"
   transform="matrix(7.0013364,0,0,7.0013364,73.339642,70.166708)">
		<path
   class="st3"
   d="m 27.1,32.7 c -1.6,1.6 -12.5,6.1 -12.5,6.1 -1.2,0.7 -2.1,-0.3 -0.9,-2.6 L 18,28 c 2.4,-4.4 3.1,-5.2 8,-5.2 l 5.9,0.8 c 2,0.3 2.4,1.8 0.8,3.3 z"
   id="path22448" />
	</g><g
   class="st1"
   id="g22454"
   transform="matrix(7.0013364,0,0,7.0013364,73.339642,70.166708)">
		<path
   class="st2"
   d="m 21.2,39.5 c 5.1,-5.1 9.3,-3.5 9.3,-3.5 0,0 1.5,4.3 -3.5,9.3 -5,5 -13.3,8.8 -13.9,8.1 -0.6,-0.5 3.1,-8.8 8.1,-13.9 z"
   id="path22452" />
	</g><g
   id="g22458"
   transform="matrix(7.0013364,0,0,7.0013364,73.339642,70.166708)">
		<path
   class="st4"
   d="m 21.2,37.5 c 5.1,-5.1 9.3,-3.5 9.3,-3.5 0,0 1.5,4.3 -3.5,9.3 -5,5 -13.3,8.8 -13.9,8.1 -0.6,-0.5 3.1,-8.8 8.1,-13.9 z"
   id="path22456" />
	</g><g
   id="g22462"
   transform="matrix(7.0013364,0,0,7.0013364,73.339642,70.166708)">
		<path
   class="st5"
   d="m 25.5,33.3 c 5.1,-5.1 9.3,-3.5 9.3,-3.5 0,0 1.5,4.3 -3.5,9.3 -5,5 -13.3,8.8 -13.9,8.1 -0.7,-0.6 3,-8.8 8.1,-13.9 z"
   id="path22460" />
	</g><g
   class="st1"
   id="g22466"
   transform="matrix(7.0013364,0,0,7.0013364,73.339642,70.166708)">
		<path
   class="st2"
   d="m 43.6,37.1 c -7.8,7.8 -19.8,5.7 -19.8,5.7 0,0 -2.1,-12 5.7,-19.8 7.8,-7.8 19.6,-8.6 21.2,-7.1 1.5,1.5 0.7,13.4 -7.1,21.2 z"
   id="path22464" />
	</g><g
   id="g22470"
   transform="matrix(11.624981,0,0,11.624981,-74.616963,-77.790015)">
		<path
   class="st6"
   d="m 38.986291,33.867026 c -4.697678,4.697678 -11.924876,3.432919 -11.924876,3.432919 0,0 -1.26476,-7.227198 3.432919,-11.924876 4.697678,-4.697678 11.804422,-5.179492 12.768049,-4.276092 0.903399,0.9034 0.421586,8.070371 -4.276092,12.768049 z"
   id="path22468"
   style="fill:#ffffe3;fill-opacity:1;stroke-width:0.602266" />
	</g><g
   class="st1"
   id="g22474"
   transform="matrix(7.0013364,0,0,7.0013364,73.339642,70.166708)">
		<path
   class="st2"
   d="m 21,47 c -0.8,0.8 -1.3,1.5 -2.1,0.7 v 0 c -0.8,-0.8 -0.1,-1.3 0.7,-2.1 l 9.9,-12.7 c 0.8,-0.8 4.2,-1.5 4.9,-0.7 v 0 c 0.8,0.8 0.1,4.2 -0.7,4.9 z"
   id="path22472" />
	</g><g
   id="g22478"
   transform="matrix(7.0013364,0,0,7.0013364,73.339642,70.166708)">
		<path
   class="st3"
   d="m 21,45 c -0.8,0.8 -1.3,1.5 -2.1,0.7 v 0 c -0.8,-0.8 -0.1,-1.3 0.7,-2.1 l 9.9,-12.7 c 0.8,-0.8 4.2,-1.5 4.9,-0.7 v 0 c 0.8,0.8 0.1,4.2 -0.7,4.9 z"
   id="path22476" />
	</g><g
   class="st1"
   id="g22482"
   transform="matrix(7.913154,0,0,7.913154,37.318122,31.563744)">
		<circle
   class="st2"
   cx="39.599998"
   cy="27.1"
   r="4"
   id="circle22480" />
	</g><g
   class="st1"
   id="g22486"
   transform="matrix(8.6494936,0,0,8.6494936,-1.3218046,21.18961)">
		<circle
   class="st2"
   cx="45.299999"
   cy="21.5"
   r="2"
   id="circle22484" />
	</g><g
   id="g22490"
   transform="matrix(7.0013364,0,0,7.0013364,73.339642,70.166708)">
		<circle
   class="st0"
   cx="39.599998"
   cy="25.1"
   r="4"
   id="circle22488" />
	</g><g
   id="g22494"
   transform="matrix(7.0013364,0,0,7.0013364,73.339642,70.166708)">
		<circle
   class="st0"
   cx="45.299999"
   cy="19.5"
   r="2"
   id="circle22492" />
	</g>
<g
   id="Layer_2"
   transform="translate(332.59702,321.13614)">
</g>
</svg>
